<?xml version="1.0" encoding="utf-8"?>
<!-- Generator: Adobe Illustrator 21.1.0, SVG Export Plug-In . SVG Version: 6.00 Build 0)  -->
<svg version="1.1" id="Layer_1" xmlns="http://www.w3.org/2000/svg" xmlns:xlink="http://www.w3.org/1999/xlink" x="0px" y="0px"
	 viewBox="0 0 36 37" style="enable-background:new 0 0 36 37;" xml:space="preserve">
<path d="M24.3,2.9c-1.6,0-3.3,0.3-4.8,1c-1.6-2-4-3.1-6.7-2.9C8.8,1.3,5.6,4.8,5.6,8.9c0,0,0,0,0,0.1c-3.5,1.4-5.8,4.9-5.6,8.8
	c0.2,4.9,4.4,8.7,9.3,8.7h4.5H15c0.8,0,1.4-0.6,1.4-1.4v-1.7v-8.1l2.4,2.6c0.2,0.2,0.6,0.2,0.8,0l1.1-1c0.2-0.2,0.2-0.6,0-0.8
	l-5.3-5.7c-0.2-0.2-0.5-0.2-0.6,0l-5.3,5.7c-0.2,0.2-0.2,0.6,0,0.8l1.1,1c0.2,0.2,0.6,0.2,0.8,0l2.4-2.6v8.1H9.2
	c-3.2,0-5.9-2.4-6.1-5.6c-0.2-2.9,1.8-5.5,4.6-6.2l1-0.2C8.9,11.2,9.1,11,9,10.7l-0.2-1c-0.1-0.3-0.1-0.6-0.1-1
	c0-2.6,2.1-4.7,4.7-4.7c1.8,0,3.4,1,4.2,2.6l0.5,1c0.1,0.3,0.4,0.3,0.7,0.2l1-0.6C21.1,6.5,22.7,6,24.3,6c4.9,0,8.8,4.1,8.7,9
	c-0.2,4.7-4.2,8.3-8.9,8.3h-2.2h-1.2c-0.8,0-1.4,0.6-1.4,1.4v1.7v5.1l-2.4-2.6c-0.2-0.2-0.6-0.2-0.8,0l-1.1,1
	c-0.2,0.2-0.2,0.6,0,0.8l5.3,5.7c0.2,0.2,0.5,0.2,0.6,0l5.3-5.7c0.2-0.2,0.2-0.6,0-0.8l-1.1-1c-0.2-0.2-0.6-0.2-0.8,0l-2.4,2.6v-5.1
	H24c6.4,0,11.8-5,12-11.4C36.2,8.4,30.9,2.9,24.3,2.9z"/>
</svg>
