<svg width="36" height="37" viewBox="0 0 36 37" fill="none" xmlns="http://www.w3.org/2000/svg">
<g clip-path="url(#clip0_1387_8)">
<path d="M24.3 2.90007C22.7 2.90007 21 3.20007 19.5 3.90007C17.9 1.90007 15.5 0.800069 12.8 1.00007C8.8 1.30007 5.6 4.80007 5.6 8.90007C5.6 8.90007 5.6 8.90007 5.6 9.00007C2.1 10.4001 -0.2 13.9001 -4.34928e-07 17.8001C0.2 22.7001 4.4 26.5001 9.3 26.5001H13.8H15C15.8 26.5001 16.4 25.9001 16.4 25.1001V23.4001V15.3001L18.8 17.9001C19 18.1001 19.4 18.1001 19.6 17.9001L20.7 16.9001C20.9 16.7001 20.9 16.3001 20.7 16.1001L15.4 10.4001C15.2 10.2001 14.9 10.2001 14.8 10.4001L9.5 16.1001C9.3 16.3001 9.3 16.7001 9.5 16.9001L10.6 17.9001C10.8 18.1001 11.2 18.1001 11.4 17.9001L13.8 15.3001V23.4001H9.2C6 23.4001 3.3 21.0001 3.1 17.8001C2.9 14.9001 4.9 12.3001 7.7 11.6001L8.7 11.4001C8.9 11.2001 9.1 11.0001 9 10.7001L8.8 9.70007C8.7 9.40007 8.7 9.10007 8.7 8.70007C8.7 6.10007 10.8 4.00007 13.4 4.00007C15.2 4.00007 16.8 5.00007 17.6 6.60007L18.1 7.60007C18.2 7.90007 18.5 7.90007 18.8 7.80007L19.8 7.20007C21.1 6.50007 22.7 6.00007 24.3 6.00007C29.2 6.00007 33.1 10.1001 33 15.0001C32.8 19.7001 28.8 23.3001 24.1 23.3001H21.9H20.7C19.9 23.3001 19.3 23.9001 19.3 24.7001V26.4001V31.5001L16.9 28.9001C16.7 28.7001 16.3 28.7001 16.1 28.9001L15 29.9001C14.8 30.1001 14.8 30.5001 15 30.7001L20.3 36.4001C20.5 36.6001 20.8 36.6001 20.9 36.4001L26.2 30.7001C26.4 30.5001 26.4 30.1001 26.2 29.9001L25.1 28.9001C24.9 28.7001 24.5 28.7001 24.3 28.9001L21.9 31.5001V26.4001H24C30.4 26.4001 35.8 21.4001 36 15.0001C36.2 8.40007 30.9 2.90007 24.3 2.90007Z" fill="white"/>
</g>
<defs>
<clipPath id="clip0_1387_8">
<rect width="36" height="37" fill="white"/>
</clipPath>
</defs>
</svg>
