<svg width="512" height="512" viewBox="0 0 512 512" fill="none" xmlns="http://www.w3.org/2000/svg">
<g clip-path="url(#clip0_1387_6)">
<path d="M320.2 243.8L270.5 343.2C264.5 355.3 247.1 354.9 241.6 342.6L184.7 216.3L154.7 288H60.6L243.1 474.5C250.2 481.8 261.7 481.8 268.8 474.5L451.4 288H342.3L320.2 243.8ZM473.7 73.8999L471.3 71.3999C419.8 18.7999 335.5 18.7999 283.9 71.3999L256 99.9999L228.1 71.4999C176.6 18.7999 92.2 18.7999 40.7 71.4999L38.3 73.8999C-10.4 123.7 -12.5 203 31 256H133.4L169.3 169.8C174.7 156.9 192.9 156.6 198.7 169.4L256.9 298.7L305.9 200.8C311.8 189 328.6 189 334.5 200.8L362.1 256H481C524.5 203 522.4 123.7 473.7 73.8999Z" fill="white"/>
</g>
<defs>
<clipPath id="clip0_1387_6">
<rect width="512" height="512" fill="white"/>
</clipPath>
</defs>
</svg>
