<svg width="512" height="512" viewBox="0 0 512 512" fill="none" xmlns="http://www.w3.org/2000/svg">
<path d="M504 255.531C504.253 392.171 392.82 503.903 256.18 503.999C197.165 504.041 142.957 483.469 100.358 449.088C89.281 440.148 88.453 423.547 98.519 413.481L109.786 402.214C118.395 393.605 132.139 392.663 141.677 400.23C173.062 425.135 212.781 440 256 440C357.705 440 440 357.689 440 256C440 154.295 357.689 72 256 72C207.186 72 162.851 90.969 129.932 121.932L180.686 172.686C190.766 182.766 183.627 200 169.373 200H24C15.163 200 8 192.837 8 184V38.627C8 24.373 25.234 17.234 35.314 27.313L84.686 76.685C129.209 34.136 189.552 8 256 8C392.81 8 503.747 118.78 504 255.531ZM323.088 334.315L332.911 321.685C341.049 311.222 339.164 296.143 328.701 288.006L288 256.349V152C288 138.745 277.255 128 264 128H248C234.745 128 224 138.745 224 152V287.651L289.409 338.525C299.872 346.662 314.95 344.778 323.088 334.315Z" fill="white"/>
</svg>
