<svg width="450" height="450" viewBox="0 0 450 450" fill="none" xmlns="http://www.w3.org/2000/svg">
<path d="M356.5 93.5H93.5V356.5H356.5V93.5Z" stroke="white" stroke-width="9"/>
<path d="M154.531 205.484L186.953 223.453C188.581 224.365 189.655 225.178 190.176 225.895C190.729 226.611 191.006 227.522 191.006 228.629C191.006 230.029 190.501 231.249 189.492 232.291C188.483 233.3 187.311 233.805 185.977 233.805C185.098 233.805 183.779 233.316 182.021 232.34L133.73 205.484L182.021 178.629C183.779 177.685 185.081 177.213 185.928 177.213C187.295 177.213 188.483 177.717 189.492 178.727C190.501 179.736 191.006 180.94 191.006 182.34C191.006 183.447 190.729 184.358 190.176 185.074C189.655 185.79 188.581 186.604 186.953 187.516L154.531 205.484ZM245.693 171.988L213.613 241.129C212.799 242.854 212.067 243.977 211.416 244.498C210.57 245.182 209.544 245.523 208.34 245.523C206.973 245.523 205.785 245.035 204.775 244.059C203.799 243.082 203.311 241.975 203.311 240.738C203.311 239.859 203.701 238.574 204.482 236.881L236.66 167.789C237.474 166.064 238.19 164.941 238.809 164.42C239.688 163.736 240.713 163.395 241.885 163.395C243.252 163.395 244.424 163.883 245.4 164.859C246.377 165.803 246.865 166.894 246.865 168.131C246.865 169.01 246.475 170.296 245.693 171.988ZM295.693 205.484L263.271 187.516C261.644 186.604 260.553 185.79 260 185.074C259.479 184.358 259.219 183.447 259.219 182.34C259.219 180.94 259.723 179.736 260.732 178.727C261.742 177.717 262.93 177.213 264.297 177.213C265.143 177.213 266.445 177.685 268.203 178.629L316.494 205.484L268.203 232.34C266.445 233.316 265.143 233.805 264.297 233.805C262.93 233.805 261.742 233.3 260.732 232.291C259.723 231.282 259.219 230.061 259.219 228.629C259.219 227.522 259.479 226.611 260 225.895C260.553 225.178 261.644 224.365 263.271 223.453L295.693 205.484Z" fill="white"/>
<path d="M155.5 26.5V81.5" stroke="white" stroke-width="9" stroke-linecap="square"/>
<path d="M190.5 26.5V81.5" stroke="white" stroke-width="9" stroke-linecap="square"/>
<path d="M225.5 26.5V81.5" stroke="white" stroke-width="9" stroke-linecap="square"/>
<path d="M260.5 26.5V81.5" stroke="white" stroke-width="9" stroke-linecap="square"/>
<path d="M295.5 26.5V81.5" stroke="white" stroke-width="9" stroke-linecap="square"/>
<path d="M155.5 368.5V423.5" stroke="white" stroke-width="9" stroke-linecap="square"/>
<path d="M190.5 368.5V423.5" stroke="white" stroke-width="9" stroke-linecap="square"/>
<path d="M225.5 368.5V423.5" stroke="white" stroke-width="9" stroke-linecap="square"/>
<path d="M260.5 368.5V423.5" stroke="white" stroke-width="9" stroke-linecap="square"/>
<path d="M295.5 368.5V423.5" stroke="white" stroke-width="9" stroke-linecap="square"/>
<path d="M426 155H371" stroke="white" stroke-width="9" stroke-linecap="square"/>
<path d="M426 190H371" stroke="white" stroke-width="9" stroke-linecap="square"/>
<path d="M426 225H371" stroke="white" stroke-width="9" stroke-linecap="square"/>
<path d="M426 260H371" stroke="white" stroke-width="9" stroke-linecap="square"/>
<path d="M426 295H371" stroke="white" stroke-width="9" stroke-linecap="square"/>
<path d="M80 155H25" stroke="white" stroke-width="9" stroke-linecap="square"/>
<path d="M80 190H25" stroke="white" stroke-width="9" stroke-linecap="square"/>
<path d="M80 225H25" stroke="white" stroke-width="9" stroke-linecap="square"/>
<path d="M80 260H25" stroke="white" stroke-width="9" stroke-linecap="square"/>
<path d="M80 295H25" stroke="white" stroke-width="9" stroke-linecap="square"/>
</svg>
