<?xml version="1.0" encoding="UTF-8"?>
<svg width="450px" height="450px" viewBox="0 0 450 450" version="1.1" xmlns="http://www.w3.org/2000/svg" xmlns:xlink="http://www.w3.org/1999/xlink">
    <title>Slice</title>
    <g id="Page-1" stroke="none" stroke-width="1" fill="none" fill-rule="evenodd">
        <rect id="Rectangle" stroke="#000000" stroke-width="9" x="93.5" y="93.5" width="263" height="263"></rect>
        <text id="&lt;/&gt;" font-family="CourierNewPS-BoldMT, Courier New" font-size="100" font-weight="bold" fill="#000000">
            <tspan x="135" y="251">&lt;/&gt;</tspan>
        </text>
        <g id="Group" transform="translate(155.000000, 26.000000)" stroke="#000000" stroke-linecap="square" stroke-width="9">
            <line x1="0.5" y1="0.5" x2="0.5" y2="55.5" id="Line"></line>
            <line x1="35.5" y1="0.5" x2="35.5" y2="55.5" id="Line"></line>
            <line x1="70.5" y1="0.5" x2="70.5" y2="55.5" id="Line"></line>
            <line x1="105.5" y1="0.5" x2="105.5" y2="55.5" id="Line"></line>
            <line x1="140.5" y1="0.5" x2="140.5" y2="55.5" id="Line"></line>
        </g>
        <g id="Group" transform="translate(155.000000, 368.000000)" stroke="#000000" stroke-linecap="square" stroke-width="9">
            <line x1="0.5" y1="0.5" x2="0.5" y2="55.5" id="Line"></line>
            <line x1="35.5" y1="0.5" x2="35.5" y2="55.5" id="Line"></line>
            <line x1="70.5" y1="0.5" x2="70.5" y2="55.5" id="Line"></line>
            <line x1="105.5" y1="0.5" x2="105.5" y2="55.5" id="Line"></line>
            <line x1="140.5" y1="0.5" x2="140.5" y2="55.5" id="Line"></line>
        </g>
        <g id="Group" transform="translate(398.500000, 225.000000) rotate(90.000000) translate(-398.500000, -225.000000) translate(328.000000, 197.000000)" stroke="#000000" stroke-linecap="square" stroke-width="9">
            <line x1="0.5" y1="0.5" x2="0.5" y2="55.5" id="Line"></line>
            <line x1="35.5" y1="0.5" x2="35.5" y2="55.5" id="Line"></line>
            <line x1="70.5" y1="0.5" x2="70.5" y2="55.5" id="Line"></line>
            <line x1="105.5" y1="0.5" x2="105.5" y2="55.5" id="Line"></line>
            <line x1="140.5" y1="0.5" x2="140.5" y2="55.5" id="Line"></line>
        </g>
        <g id="Group" transform="translate(52.500000, 225.000000) rotate(90.000000) translate(-52.500000, -225.000000) translate(-18.000000, 197.000000)" stroke="#000000" stroke-linecap="square" stroke-width="9">
            <line x1="0.5" y1="0.5" x2="0.5" y2="55.5" id="Line"></line>
            <line x1="35.5" y1="0.5" x2="35.5" y2="55.5" id="Line"></line>
            <line x1="70.5" y1="0.5" x2="70.5" y2="55.5" id="Line"></line>
            <line x1="105.5" y1="0.5" x2="105.5" y2="55.5" id="Line"></line>
            <line x1="140.5" y1="0.5" x2="140.5" y2="55.5" id="Line"></line>
        </g>
    </g>
</svg>