<?xml version="1.0" encoding="utf-8"?>
<!-- Generator: Adobe Illustrator 21.1.0, SVG Export Plug-In . SVG Version: 6.00 Build 0)  -->
<svg version="1.1" id="Layer_1" xmlns="http://www.w3.org/2000/svg" xmlns:xlink="http://www.w3.org/1999/xlink" x="0px" y="0px"
	 viewBox="0 0 24 24" style="enable-background:new 0 0 24 24;" xml:space="preserve">
<style type="text/css">
	.st0{fill:none;}
	.st1{fill:#FFFFFF;}
</style>
<g>
	<rect class="st0" width="24" height="24"/>
</g>
<g>
	<g>
		<path class="st1" d="M18.8,3h-16c-1.1,0-2,0.9-2,2v14c0,1.1,0.9,2,2,2h16c1.1,0,2-0.9,2-2V5C20.8,3.9,19.9,3,18.8,3z M18.8,19h-16
			V5h16V19z"/>
		<path class="st1" d="M4.9,13h2v-2h-2V13z M4.9,17h2v-2h-2V17z M4.9,9h2V7h-2V9z M8.9,13h14v-2h-14C8.9,11,8.9,13,8.9,13z M8.9,17
			h14v-2h-14C8.9,15,8.9,17,8.9,17z M8.9,7v2h14V7H8.9z M4.9,13h2v-2h-2V13z M4.9,17h2v-2h-2V17z M4.9,9h2V7h-2V9z M8.9,13h14v-2
			h-14C8.9,11,8.9,13,8.9,13z M8.9,17h14v-2h-14C8.9,15,8.9,17,8.9,17z M8.9,7v2h14V7H8.9z"/>
	</g>
</g>
</svg>
